<?xml version="1.0" encoding="UTF-8" standalone="no"?>
<!DOCTYPE svg PUBLIC "-//W3C//DTD SVG 1.1//EN"
 "http://www.w3.org/Graphics/SVG/1.1/DTD/svg11.dtd">
<!-- Generated by graphviz version 12.1.1 (20240910.0053)
 -->
<!-- Title: INFRA Pages: 1 -->
<svg width="2822pt" height="80pt"
 viewBox="0.00 0.00 2821.56 80.00" xmlns="http://www.w3.org/2000/svg" xmlns:xlink="http://www.w3.org/1999/xlink">
<g id="graph0" class="graph" transform="scale(1 1) rotate(0) translate(4 76)">
<title>INFRA</title>
<polygon fill="white" stroke="none" points="-4,4 -4,-76 2817.56,-76 2817.56,4 -4,4"/>
<!-- ExampleIntSchema -->
<g id="node1" class="node">
<title>ExampleIntSchema</title>
<path fill="#e6e6e6" stroke="black" stroke-width="2" d="M125.39,-72C125.39,-72 12,-72 12,-72 6,-72 0,-66 0,-60 0,-60 0,-12 0,-12 0,-6 6,0 12,0 12,0 125.39,0 125.39,0 131.39,0 137.39,-6 137.39,-12 137.39,-12 137.39,-60 137.39,-60 137.39,-66 131.39,-72 125.39,-72"/>
<text text-anchor="middle" x="68.7" y="-40.2" font-family="Arial" font-size="14.00">ExampleIntSchema</text>
<text text-anchor="middle" x="68.7" y="-23.4" font-family="Arial" font-size="14.00">(arrow::Schema)</text>
</g>
<!-- ExampleStringSchema -->
<g id="node2" class="node">
<title>ExampleStringSchema</title>
<path fill="#e6e6e6" stroke="black" stroke-width="2" d="M301.9,-72C301.9,-72 167.5,-72 167.5,-72 161.5,-72 155.5,-66 155.5,-60 155.5,-60 155.5,-12 155.5,-12 155.5,-6 161.5,0 167.5,0 167.5,0 301.9,0 301.9,0 307.9,0 313.9,-6 313.9,-12 313.9,-12 313.9,-60 313.9,-60 313.9,-66 307.9,-72 301.9,-72"/>
<text text-anchor="middle" x="234.7" y="-40.2" font-family="Arial" font-size="14.00">ExampleStringSchema</text>
<text text-anchor="middle" x="234.7" y="-23.4" font-family="Arial" font-size="14.00">(arrow::Schema)</text>
</g>
<!-- ExampleDictSchema -->
<g id="node3" class="node">
<title>ExampleDictSchema</title>
<path fill="#e6e6e6" stroke="black" stroke-width="2" d="M465.67,-72C465.67,-72 343.73,-72 343.73,-72 337.73,-72 331.73,-66 331.73,-60 331.73,-60 331.73,-12 331.73,-12 331.73,-6 337.73,0 343.73,0 343.73,0 465.67,0 465.67,0 471.67,0 477.67,-6 477.67,-12 477.67,-12 477.67,-60 477.67,-60 477.67,-66 471.67,-72 465.67,-72"/>
<text text-anchor="middle" x="404.7" y="-40.2" font-family="Arial" font-size="14.00">ExampleDictSchema</text>
<text text-anchor="middle" x="404.7" y="-23.4" font-family="Arial" font-size="14.00">(arrow::Schema)</text>
</g>
<!-- ExampleLargeSchema -->
<g id="node4" class="node">
<title>ExampleLargeSchema</title>
<path fill="#e6e6e6" stroke="black" stroke-width="2" d="M641.51,-72C641.51,-72 507.88,-72 507.88,-72 501.88,-72 495.88,-66 495.88,-60 495.88,-60 495.88,-12 495.88,-12 495.88,-6 501.88,0 507.88,0 507.88,0 641.51,0 641.51,0 647.51,0 653.51,-6 653.51,-12 653.51,-12 653.51,-60 653.51,-60 653.51,-66 647.51,-72 641.51,-72"/>
<text text-anchor="middle" x="574.7" y="-40.2" font-family="Arial" font-size="14.00">ExampleLargeSchema</text>
<text text-anchor="middle" x="574.7" y="-23.4" font-family="Arial" font-size="14.00">(arrow::Schema)</text>
</g>
<!-- ExampleIntBatches -->
<g id="node5" class="node">
<title>ExampleIntBatches</title>
<path fill="#e6e6e6" stroke="black" stroke-width="2" d="M849.45,-72C849.45,-72 683.94,-72 683.94,-72 677.94,-72 671.94,-66 671.94,-60 671.94,-60 671.94,-12 671.94,-12 671.94,-6 677.94,0 683.94,0 683.94,0 849.45,0 849.45,0 855.45,0 861.45,-6 861.45,-12 861.45,-12 861.45,-60 861.45,-60 861.45,-66 855.45,-72 849.45,-72"/>
<text text-anchor="middle" x="766.7" y="-40.2" font-family="Arial" font-size="14.00">ExampleIntBatches</text>
<text text-anchor="middle" x="766.7" y="-23.4" font-family="Arial" font-size="14.00">(arrow::RecordBatchVector)</text>
</g>
<!-- ExampleFloatBatches -->
<g id="node6" class="node">
<title>ExampleFloatBatches</title>
<path fill="#e6e6e6" stroke="black" stroke-width="2" d="M1057.45,-72C1057.45,-72 891.94,-72 891.94,-72 885.94,-72 879.94,-66 879.94,-60 879.94,-60 879.94,-12 879.94,-12 879.94,-6 885.94,0 891.94,0 891.94,0 1057.45,0 1057.45,0 1063.45,0 1069.45,-6 1069.45,-12 1069.45,-12 1069.45,-60 1069.45,-60 1069.45,-66 1063.45,-72 1057.45,-72"/>
<text text-anchor="middle" x="974.7" y="-40.2" font-family="Arial" font-size="14.00">ExampleFloatBatches</text>
<text text-anchor="middle" x="974.7" y="-23.4" font-family="Arial" font-size="14.00">(arrow::RecordBatchVector)</text>
</g>
<!-- ExampleDictBatches -->
<g id="node7" class="node">
<title>ExampleDictBatches</title>
<path fill="#e6e6e6" stroke="black" stroke-width="2" d="M1265.45,-72C1265.45,-72 1099.94,-72 1099.94,-72 1093.94,-72 1087.94,-66 1087.94,-60 1087.94,-60 1087.94,-12 1087.94,-12 1087.94,-6 1093.94,0 1099.94,0 1099.94,0 1265.45,0 1265.45,0 1271.45,0 1277.45,-6 1277.45,-12 1277.45,-12 1277.45,-60 1277.45,-60 1277.45,-66 1271.45,-72 1265.45,-72"/>
<text text-anchor="middle" x="1182.7" y="-40.2" font-family="Arial" font-size="14.00">ExampleDictBatches</text>
<text text-anchor="middle" x="1182.7" y="-23.4" font-family="Arial" font-size="14.00">(arrow::RecordBatchVector)</text>
</g>
<!-- ExampleNestedBatches -->
<g id="node8" class="node">
<title>ExampleNestedBatches</title>
<path fill="#e6e6e6" stroke="black" stroke-width="2" d="M1473.45,-72C1473.45,-72 1307.94,-72 1307.94,-72 1301.94,-72 1295.94,-66 1295.94,-60 1295.94,-60 1295.94,-12 1295.94,-12 1295.94,-6 1301.94,0 1307.94,0 1307.94,0 1473.45,0 1473.45,0 1479.45,0 1485.45,-6 1485.45,-12 1485.45,-12 1485.45,-60 1485.45,-60 1485.45,-66 1479.45,-72 1473.45,-72"/>
<text text-anchor="middle" x="1390.7" y="-40.2" font-family="Arial" font-size="14.00">ExampleNestedBatches</text>
<text text-anchor="middle" x="1390.7" y="-23.4" font-family="Arial" font-size="14.00">(arrow::RecordBatchVector)</text>
</g>
<!-- ExampleLargeBatches -->
<g id="node9" class="node">
<title>ExampleLargeBatches</title>
<path fill="#e6e6e6" stroke="black" stroke-width="2" d="M1681.45,-72C1681.45,-72 1515.94,-72 1515.94,-72 1509.94,-72 1503.94,-66 1503.94,-60 1503.94,-60 1503.94,-12 1503.94,-12 1503.94,-6 1509.94,0 1515.94,0 1515.94,0 1681.45,0 1681.45,0 1687.45,0 1693.45,-6 1693.45,-12 1693.45,-12 1693.45,-60 1693.45,-60 1693.45,-66 1687.45,-72 1681.45,-72"/>
<text text-anchor="middle" x="1598.7" y="-40.2" font-family="Arial" font-size="14.00">ExampleLargeBatches</text>
<text text-anchor="middle" x="1598.7" y="-23.4" font-family="Arial" font-size="14.00">(arrow::RecordBatchVector)</text>
</g>
<!-- VeryLargeBatch -->
<g id="node10" class="node">
<title>VeryLargeBatch</title>
<path fill="#e6e6e6" stroke="black" stroke-width="2" d="M1848.22,-72C1848.22,-72 1723.18,-72 1723.18,-72 1717.18,-72 1711.18,-66 1711.18,-60 1711.18,-60 1711.18,-12 1711.18,-12 1711.18,-6 1717.18,0 1723.18,0 1723.18,0 1848.22,0 1848.22,0 1854.22,0 1860.22,-6 1860.22,-12 1860.22,-12 1860.22,-60 1860.22,-60 1860.22,-66 1854.22,-72 1848.22,-72"/>
<text text-anchor="middle" x="1785.7" y="-40.2" font-family="Arial" font-size="14.00">VeryLargeBatch</text>
<text text-anchor="middle" x="1785.7" y="-23.4" font-family="Arial" font-size="14.00">(arrow::RecordBatch)</text>
</g>
<!-- ExampleFlightInfo -->
<g id="node11" class="node">
<title>ExampleFlightInfo</title>
<path fill="#e6e6e6" stroke="black" stroke-width="2" d="M2029.22,-72C2029.22,-72 1890.17,-72 1890.17,-72 1884.17,-72 1878.17,-66 1878.17,-60 1878.17,-60 1878.17,-12 1878.17,-12 1878.17,-6 1884.17,0 1890.17,0 1890.17,0 2029.22,0 2029.22,0 2035.22,0 2041.22,-6 2041.22,-12 2041.22,-12 2041.22,-60 2041.22,-60 2041.22,-66 2035.22,-72 2029.22,-72"/>
<text text-anchor="middle" x="1959.7" y="-40.2" font-family="Arial" font-size="14.00">ExampleFlightInfo</text>
<text text-anchor="middle" x="1959.7" y="-23.4" font-family="Arial" font-size="14.00">(arrow::flight::FlightInfo)</text>
</g>
<!-- ExampleActionTypes -->
<g id="node12" class="node">
<title>ExampleActionTypes</title>
<path fill="#e6e6e6" stroke="black" stroke-width="2" d="M2222.44,-72C2222.44,-72 2070.95,-72 2070.95,-72 2064.95,-72 2058.95,-66 2058.95,-60 2058.95,-60 2058.95,-12 2058.95,-12 2058.95,-6 2064.95,0 2070.95,0 2070.95,0 2222.44,0 2222.44,0 2228.44,0 2234.44,-6 2234.44,-12 2234.44,-12 2234.44,-60 2234.44,-60 2234.44,-66 2228.44,-72 2222.44,-72"/>
<text text-anchor="middle" x="2146.7" y="-40.2" font-family="Arial" font-size="14.00">ExampleActionTypes</text>
<text text-anchor="middle" x="2146.7" y="-23.4" font-family="Arial" font-size="14.00">(arrow::flight::ActionType)</text>
</g>
<!-- MakeFlightInfo -->
<g id="node13" class="node">
<title>MakeFlightInfo</title>
<path fill="#e6e6e6" stroke="black" stroke-width="2" d="M2403.22,-72C2403.22,-72 2264.17,-72 2264.17,-72 2258.17,-72 2252.17,-66 2252.17,-60 2252.17,-60 2252.17,-12 2252.17,-12 2252.17,-6 2258.17,0 2264.17,0 2264.17,0 2403.22,0 2403.22,0 2409.22,0 2415.22,-6 2415.22,-12 2415.22,-12 2415.22,-60 2415.22,-60 2415.22,-66 2409.22,-72 2403.22,-72"/>
<text text-anchor="middle" x="2333.7" y="-40.2" font-family="Arial" font-size="14.00">MakeFlightInfo</text>
<text text-anchor="middle" x="2333.7" y="-23.4" font-family="Arial" font-size="14.00">(arrow::flight::FlightInfo)</text>
</g>
<!-- ExampleTlsCertificates -->
<g id="node14" class="node">
<title>ExampleTlsCertificates</title>
<path fill="#e6e6e6" stroke="black" stroke-width="2" d="M2602.16,-72C2602.16,-72 2445.23,-72 2445.23,-72 2439.23,-72 2433.23,-66 2433.23,-60 2433.23,-60 2433.23,-12 2433.23,-12 2433.23,-6 2439.23,0 2445.23,0 2445.23,0 2602.16,0 2602.16,0 2608.16,0 2614.16,-6 2614.16,-12 2614.16,-12 2614.16,-60 2614.16,-60 2614.16,-66 2608.16,-72 2602.16,-72"/>
<text text-anchor="middle" x="2523.7" y="-40.2" font-family="Arial" font-size="14.00">ExampleTlsCertificates</text>
<text text-anchor="middle" x="2523.7" y="-23.4" font-family="Arial" font-size="14.00">(arrow::flight::CertKeyPair)</text>
</g>
<!-- ExampleTlsCertificateRoot -->
<g id="node15" class="node">
<title>ExampleTlsCertificateRoot</title>
<path fill="#e6e6e6" stroke="black" stroke-width="2" d="M2801.56,-72C2801.56,-72 2643.83,-72 2643.83,-72 2637.83,-72 2631.83,-66 2631.83,-60 2631.83,-60 2631.83,-12 2631.83,-12 2631.83,-6 2637.83,0 2643.83,0 2643.83,0 2801.56,0 2801.56,0 2807.56,0 2813.56,-6 2813.56,-12 2813.56,-12 2813.56,-60 2813.56,-60 2813.56,-66 2807.56,-72 2801.56,-72"/>
<text text-anchor="middle" x="2722.7" y="-40.2" font-family="Arial" font-size="14.00">ExampleTlsCertificateRoot</text>
<text text-anchor="middle" x="2722.7" y="-23.4" font-family="Arial" font-size="14.00">(arrow::flight::CertKeyPair)</text>
</g>
</g>
</svg>
